# xmcd CD database file
#
# Track frame offsets:
#	150
#	14244
#	29759
#	45974
#	61553
#	76852
#	92886
#	110856
#	126214
#	143395
#	156382
#	168520
#	183446
#	195803
#	212061
#	223790
#	240807
#	257906
#	270852
#	285251
#
# Disc length: 3971 seconds
#
# Revision: 0
# Processed by: cddbd v1.5.1PL0 Copyright (c) Steve Scherf et al.
# Submitted via: CDex 1.50beta10
#
DISCID=0f0f8114
DTITLE=EDSON E HUDSON - AS 20 MAIS
DYEAR=1900
DGENRE=Country
TTITLE0=AZUL
TTITLE1=BICHO VAI PEGAR
TTITLE2=MIL RAZOES
TTITLE3=SAUDADE
TTITLE4=AMOR SINCERO
TTITLE5=PORTA RETRATO
TTITLE6=ANJO
TTITLE7=UM MINUTO
TTITLE8=TA VENDO
TTITLE9=NAO DA PRA ENTENDER
TTITLE10=MULHER, CERVEJA E VIOLA
TTITLE11=ANJO MEU
TTITLE12=NOSSO AMOR
TTITLE13=OU NAO
TTITLE14=ZOIAO
TTITLE15=PRA PODER ME TER
TTITLE16=NAO ME DIGA NADA
TTITLE17=FOI MAL
TTITLE18=PRA TE ABRACAR
TTITLE19=SAPATEIA GALERA
EXTD=
EXTT0=
EXTT1=
EXTT2=
EXTT3=
EXTT4=
EXTT5=
EXTT6=
EXTT7=
EXTT8=
EXTT9=
EXTT10=
EXTT11=
EXTT12=
EXTT13=
EXTT14=
EXTT15=
EXTT16=
EXTT17=
EXTT18=
EXTT19=
PLAYORDER=
